<svg width="16" height="16" viewBox="0 0 16 16" fill="none" xmlns="http://www.w3.org/2000/svg">
<path d="M8 16C12.4183 16 16 12.4183 16 8C16 3.58172 12.4183 0 8 0C3.58173 0 0 3.58172 0 8C0 12.4183 3.58173 16 8 16Z" fill="#211261"/>
<path d="M8.40964 6.32959H7.47815V11.6155H8.40964V6.32959Z" fill="white"/>
<path d="M8.40964 4.41626H7.47815V5.29725H8.40964V4.41626Z" fill="white"/>
<path d="M12.9511 4.41609V6.58023C12.5452 6.41189 12.1131 6.32772 11.6568 6.32772C9.98642 6.32772 9.15033 7.17317 9.15033 8.86407C9.15033 10.6971 9.9378 11.6118 11.5109 11.6118C12.4498 11.6118 13.241 11.5052 13.8826 11.2938V4.41235H12.9511V4.41609ZM12.9511 10.6429C12.5752 10.7738 12.145 10.8393 11.6624 10.8393C10.5981 10.8393 10.0669 10.1697 10.0669 8.8304C10.0669 7.69877 10.5981 7.13389 11.6624 7.13389C12.145 7.13389 12.5752 7.22367 12.9511 7.40511V10.641V10.6429Z" fill="white"/>
<path d="M4.23099 6.32959C3.77459 6.32959 3.34626 6.41376 2.94785 6.5821V4.41797H2.01636V11.4004C2.65045 11.5445 3.34626 11.6174 4.10567 11.6174C5.86017 11.6174 6.73929 10.7009 6.73929 8.86969C6.73929 7.17878 5.90319 6.33333 4.23286 6.33333L4.23099 6.32959ZM4.05891 10.8393C3.62309 10.8393 3.25273 10.7907 2.94598 10.6934V7.40698C3.31446 7.22554 3.74093 7.13576 4.22538 7.13576C5.28968 7.13576 5.82089 7.70064 5.82089 8.83228C5.82089 10.1715 5.23356 10.8412 4.05891 10.8412V10.8393Z" fill="white"/>
</svg>
