<svg width="97" height="96" viewBox="0 0 97 96" fill="none" xmlns="http://www.w3.org/2000/svg">
<rect x="0.5" width="96" height="96" rx="4" fill="#009497"/>
<path d="M67.6455 38.082H67.8619V50.4133H76.5153L77.597 50.3051L74.5683 47.2764L74.1356 46.411L74.2438 45.762L75.65 43.4905L76.5153 42.1924L77.3807 41.2189L78.6787 40.5699L80.0849 40.3536H81.3829L82.5728 40.5699L83.6545 41.0026L84.9525 41.9761L86.0342 43.0578L86.8995 44.3558V56.9034L86.7914 57.4442H70.1334L69.4844 56.9034L69.3762 53.442L69.2681 53.1175L69.0517 53.0093H67.5374L67.1047 53.5501L66.3475 54.5237L64.6168 56.2544L63.3188 57.0115L62.2371 57.4442H58.4512L57.1532 57.0115L55.8551 56.038L54.5571 54.1992L53.1509 51.8194L52.6101 51.9276L51.3121 53.3338L49.7977 54.9563L48.6078 56.2544L47.418 57.4442H45.2546L44.9301 57.1197L44.8219 45.9783L43.0912 45.8702V52.793L42.7667 54.3073L41.9014 55.9299L40.9279 57.0115L40.387 57.5524L39.8462 57.9851L38.44 58.8504L36.9256 59.3913L35.1949 59.7158H33.2479L31.5172 59.3913L30.0028 58.8504L28.5966 57.9851L27.2986 56.9034L26.3251 55.6053L25.6761 54.3073L25.2434 52.5766L25.1353 50.0887H30.8682L31.1927 52.3603L31.6254 53.2256L32.1662 53.7665L32.8152 54.1992L33.4642 54.4155H34.9786L35.9521 53.9828L36.8175 53.3338L37.2501 52.4685L37.3583 51.6031L37.4665 43.5986L38.1155 42.8415L40.9279 40.0291L41.7932 39.2719L42.6586 38.4065L42.9831 38.2984L43.0912 38.4065L43.1994 43.3823L50.7712 43.4905L51.2039 44.0313L51.3121 49.9806L51.6366 50.3051L52.3937 49.6561L53.2591 48.7907L54.0163 47.9254L58.4512 43.4905H58.992L59.3165 43.815L59.4247 50.3051L59.641 50.5214L60.1819 50.6296H60.9391L61.3717 50.4133L61.4799 44.3558L61.8044 43.5986L63.5351 41.9761L64.8331 40.6781L65.6985 39.9209L67.2128 38.4065L67.6455 38.082Z" fill="white"/>
<path d="M15.2917 36.8926H18.3204L19.6185 37.3253L20.7001 38.1906L21.241 38.8396L22.1063 40.2458L23.2962 42.4092L23.6207 42.6255L24.1615 42.0847L25.3514 40.7866L26.1086 39.8131L27.2984 38.4069L28.5965 37.0007L28.8128 36.8926H30.4353L30.7598 37.1089L30.868 37.6498V48.1421L30.6517 48.2503H25.2432L25.1351 48.1421L25.0269 44.4644L24.8106 44.1399L24.486 44.248L23.5125 45.4379L22.1063 46.9523L21.1328 48.1421L20.1593 49.1156L19.4021 49.981L18.5368 50.8463L18.1041 50.9545L17.6714 50.5218L17.5632 44.0317L17.1306 43.8154H16.0489L15.6162 44.248L15.508 61.6632L15.3999 63.6102L13.9937 65.1246L13.0202 66.3145L11.7221 67.7206L10.7486 68.9105L10.2078 69.3432L10.0996 68.8023V41.652L10.7486 40.4621L11.614 39.3805L12.3712 38.5151L13.6692 37.5416L14.859 37.0007L15.2917 36.8926Z" fill="white"/>
<path d="M54.7739 26.4004L55.3148 26.6167L58.8843 30.1863L58.9925 30.8353L55.5311 34.2967L55.4229 34.513L61.3722 34.6212L61.913 35.1621V39.0561L61.4804 39.597L61.264 39.7051H48.1756L47.7429 39.4888L47.5266 39.1643V34.9457L48.1756 34.6212H54.4494L53.6922 33.7559L50.8798 30.9435L50.7717 30.4026L51.7452 29.3209L54.4494 26.6167L54.7739 26.4004Z" fill="white"/>
<path d="M74.677 64.043H86.3592L86.9001 64.1511V69.1269H72.6218V64.1511L74.677 64.043Z" fill="white"/>
<path d="M36.6014 32.3496L37.1423 32.5659L37.6831 32.9986L38.4403 33.864L39.1975 34.6212L39.9546 35.4865L40.9282 36.46L41.2527 37.109L40.2792 38.1907L39.4138 38.9479L37.7913 40.5704L36.7096 41.4358L36.1687 41.3276L35.4116 40.5704L34.6544 39.7051L32.9237 37.9744L32.1665 37.0009L32.2747 36.46L34.2217 34.513L35.0871 33.7558L36.2769 32.5659L36.6014 32.3496Z" fill="white"/>
<path d="M55.7471 63.7178H57.2615L58.3432 64.2586L58.9922 65.0158L59.4248 65.9893V67.071L58.9922 68.1527L58.4513 68.8017L57.1533 69.4507H55.8553L54.8818 69.018L54.2328 68.4772L53.6919 67.5037L53.5837 67.071V66.0975L53.9082 65.124L54.7736 64.1504L55.7471 63.7178Z" fill="white"/>
<path d="M17.0237 63.502L17.4564 63.6101L18.3217 64.8L19.6197 66.8552V67.0715H19.8361L20.0524 66.5307L21.8913 63.8265L22.2158 63.502H22.4321L22.5403 63.7183V69.3431H21.2423V67.396L20.8096 67.8287L20.0524 69.1267L19.5116 69.2349L18.4299 67.5042L18.3217 69.2349L18.2136 69.3431H17.0237L16.9155 68.9104V64.0428L17.0237 63.502Z" fill="white"/>
<path d="M63.6429 63.6104L64.0755 63.8267L66.1307 65.8819L66.6716 66.5309L66.7797 63.7185H68.0778L68.1859 64.692V66.5309L68.0778 69.4515L67.5369 69.3433L65.6981 67.5044L64.9409 66.6391L64.8327 66.9636L64.7245 69.3433H63.4265V63.8267L63.6429 63.6104Z" fill="white"/>
<path d="M41.6848 63.6104H42.7665L43.6318 64.043L43.9563 64.5839L43.8482 65.1247L43.3073 65.4492L42.8746 65.3411L42.5501 65.0165L41.793 65.1247L41.9011 65.5574L43.091 66.0982L43.74 66.5309L44.1727 67.1799V68.2616L43.74 68.9106L43.091 69.3433L42.7665 69.4515H41.4684L40.6031 69.0188L40.0623 68.3698L40.2786 67.9371L40.8194 67.5044L41.2521 67.6126L41.5766 67.9371L42.442 68.0453L42.7665 67.8289L42.5501 67.3963L40.9276 66.5309L40.3868 65.8819L40.2786 65.2329L40.6031 64.3675L41.1439 63.8267L41.6848 63.6104Z" fill="white"/>
<path d="M33.789 63.6104H34.8707L35.7361 64.043L36.1687 64.692L35.9524 65.1247L35.5197 65.4492L35.0871 65.3411L34.6544 65.0165H34.1135L33.8972 65.4492L35.6279 66.3146L36.2769 67.0717L36.3851 68.0453L36.0606 68.6943L35.4116 69.2351L34.8707 69.4515H33.6809L32.9237 69.127L32.3828 68.6943L32.1665 68.1534L32.8155 67.6126L33.2482 67.5044L33.8972 68.0453H34.5462L34.9789 67.9371L34.8707 67.5044L32.9237 66.4227L32.491 65.7737V64.8002L32.9237 64.1512L33.4645 63.7185L33.789 63.6104Z" fill="white"/>
<path d="M55.9633 65.0166H57.045L57.694 65.4493L58.0185 65.9901L58.1267 66.7473L57.8021 67.5045L57.1531 68.0453L56.1796 68.1535L55.5306 67.829L54.9898 67.18L54.8816 66.3146L55.3143 65.4493L55.9633 65.0166Z" fill="#009497"/>
<path d="M26.9744 63.7178H28.0561L28.1642 63.9341V68.9099L28.0561 69.3425H26.8662L26.7581 69.018V63.9341L26.9744 63.7178Z" fill="white"/>
<path d="M48.1748 63.7178H49.4728V69.3425H48.1748V63.7178Z" fill="white"/>
<path d="M80.0852 45.9785H81.0588L81.1669 46.0867V49.1154L81.0588 50.3053L80.8424 50.4134H79.8689V46.0867L80.0852 45.9785Z" fill="#009497"/>
</svg>
