<svg width="218" height="121" viewBox="0 0 218 121" fill="none" xmlns="http://www.w3.org/2000/svg">
<path d="M177.9 117.17H178.11V80.02H171.88V117.17H172.09C171.53 117.17 171.07 117.63 171.07 118.19V119.31C171.07 119.87 171.53 120.33 172.09 120.33H177.9C178.46 120.33 178.92 119.87 178.92 119.31V118.19C178.92 117.63 178.46 117.17 177.9 117.17Z" fill="#FF9E18"/>
<path d="M174.99 85.54C198.611 85.54 217.76 66.3912 217.76 42.77C217.76 19.1488 198.611 0 174.99 0C151.369 0 132.22 19.1488 132.22 42.77C132.22 66.3912 151.369 85.54 174.99 85.54Z" fill="#FF9E18"/>
<path d="M0 35.0001C3.21 34.2301 6.82001 33.8401 10.82 33.8401C19.88 33.8401 24.41 38.3201 24.41 47.2701C24.41 57.1601 19.85 62.1001 10.74 62.1001C8.47999 62.1001 5.83999 61.6501 2.82999 60.7501V72.3201H0V34.9901V35.0001ZM2.82999 57.9501C5.67999 58.9201 8.31 59.4001 10.72 59.4001C18.02 59.4001 21.67 55.3401 21.67 47.2101C21.67 39.9801 18.04 36.3601 10.77 36.3601C8.25999 36.3601 5.60999 36.5801 2.82999 37.0101V57.9501Z" fill="#FF9E18"/>
<path d="M39.76 33.8401C47.49 33.8401 51.36 38.1201 51.36 46.6801C51.36 47.2901 51.34 47.9301 51.31 48.5901H29.86C29.86 55.9801 33.77 59.6801 41.59 59.6801C44.8 59.6801 47.65 59.2301 50.15 58.3301V60.7501C47.66 61.6501 44.8 62.1001 41.59 62.1001C31.88 62.1001 27.03 57.2801 27.03 47.6501C27.03 38.0201 31.27 33.8401 39.76 33.8401ZM29.85 46.0601H48.64C48.53 39.4901 45.57 36.2101 39.76 36.2101C33.48 36.2101 30.18 39.4901 29.86 46.0601H29.85Z" fill="#FF9E18"/>
<path d="M66.7 33.8401C74.43 33.8401 78.3 38.1201 78.3 46.6801C78.3 47.2901 78.28 47.9301 78.25 48.5901H56.8C56.8 55.9801 60.71 59.6801 68.53 59.6801C71.74 59.6801 74.59 59.2301 77.09 58.3301V60.7501C74.6 61.6501 71.74 62.1001 68.53 62.1001C58.82 62.1001 53.97 57.2801 53.97 47.6501C53.97 38.0201 58.21 33.8401 66.7 33.8401ZM56.8 46.0601H75.59C75.48 39.4901 72.52 36.2101 66.71 36.2101C60.43 36.2101 57.13 39.4901 56.81 46.0601H56.8Z" fill="#FF9E18"/>
<path d="M84.82 23.6101H81.99V62.1001H84.82V23.6101Z" fill="#FF9E18"/>
<path d="M105.3 54.1001C105.3 48.4901 109.03 45.6801 116.5 45.6801C119.14 45.6801 121.95 45.8601 124.95 46.2201V42.7501C124.95 38.4301 122.23 36.2601 116.8 36.2601C113.71 36.2601 110.65 36.7101 107.6 37.6101V35.1901C110.65 34.2901 113.72 33.8401 116.8 33.8401C124.12 33.8401 127.78 36.7601 127.78 42.6101V62.0901H126.06L125.41 59.2901C121.88 61.1601 118.45 62.0901 115.13 62.0901C108.58 62.0901 105.31 59.4301 105.31 54.1001H105.3ZM116.5 48.1001C110.92 48.1001 108.13 50.0701 108.13 54.0201C108.13 57.9701 110.46 59.6701 115.13 59.6701C118.57 59.6701 121.85 58.7501 124.95 56.9201V48.6301C121.95 48.2701 119.14 48.0901 116.5 48.0901V48.1001Z" fill="#FF9E18"/>
<path d="M177.18 33.8401H172.2V62.1001H177.18V33.8401Z" fill="white"/>
<path d="M177.18 23.6101H172.2V28.3201H177.18V23.6101Z" fill="white"/>
<path d="M201.46 23.6101V35.1801C199.29 34.2801 196.98 33.8301 194.54 33.8301C185.61 33.8301 181.14 38.3501 181.14 47.3901C181.14 57.1901 185.35 62.0801 193.76 62.0801C198.78 62.0801 203.01 61.5101 206.44 60.3801V23.5901H201.46V23.6101ZM201.46 56.9001C199.45 57.6001 197.15 57.9501 194.57 57.9501C188.88 57.9501 186.04 54.3701 186.04 47.2101C186.04 41.1601 188.88 38.1401 194.57 38.1401C197.15 38.1401 199.45 38.6201 201.46 39.5901V56.8901V56.9001Z" fill="white"/>
<path d="M154.84 33.8401C152.4 33.8401 150.11 34.2901 147.98 35.1901V23.6201H143V60.9501C146.39 61.7201 150.11 62.1101 154.17 62.1101C163.55 62.1101 168.25 57.2101 168.25 47.4201C168.25 38.3801 163.78 33.8601 154.85 33.8601L154.84 33.8401ZM153.92 57.9501C151.59 57.9501 149.61 57.6901 147.97 57.1701V39.6001C149.94 38.6301 152.22 38.1501 154.81 38.1501C160.5 38.1501 163.34 41.1701 163.34 47.2201C163.34 54.3801 160.2 57.9601 153.92 57.9601V57.9501Z" fill="white"/>
<path d="M100.55 33.8401H96.61L84.82 45.7801V47.7501L97.86 62.1001H102.15L87.67 46.6401L100.55 33.8401Z" fill="#FF9E18"/>
</svg>
