<svg width="219" height="121" viewBox="0 0 219 121" fill="none" xmlns="http://www.w3.org/2000/svg">
<path d="M178.25 117.67H178.46V80.52H172.23V117.67H172.44C171.88 117.67 171.42 118.13 171.42 118.69V119.81C171.42 120.37 171.88 120.83 172.44 120.83H178.25C178.81 120.83 179.27 120.37 179.27 119.81V118.69C179.27 118.13 178.81 117.67 178.25 117.67Z" fill="#211261"/>
<path d="M175.34 86.04C198.961 86.04 218.11 66.8912 218.11 43.27C218.11 19.6488 198.961 0.5 175.34 0.5C151.719 0.5 132.57 19.6488 132.57 43.27C132.57 66.8912 151.719 86.04 175.34 86.04Z" fill="#211261"/>
<path d="M0.350006 35.5001C3.56001 34.7301 7.17001 34.3401 11.17 34.3401C20.23 34.3401 24.76 38.8201 24.76 47.7701C24.76 57.6601 20.2 62.6001 11.09 62.6001C8.83 62.6001 6.18999 62.1501 3.17999 61.2501V72.8201H0.350006V35.4901V35.5001ZM3.17999 58.4501C6.02999 59.4201 8.66001 59.9001 11.07 59.9001C18.37 59.9001 22.02 55.8401 22.02 47.7101C22.02 40.4801 18.39 36.8601 11.12 36.8601C8.60999 36.8601 5.95999 37.0801 3.17999 37.5101V58.4501Z" fill="#211261"/>
<path d="M40.11 34.3401C47.84 34.3401 51.71 38.6201 51.71 47.1801C51.71 47.7901 51.69 48.4301 51.66 49.0901H30.21C30.21 56.4801 34.12 60.1801 41.94 60.1801C45.15 60.1801 48 59.7301 50.5 58.8301V61.2501C48.01 62.1501 45.15 62.6001 41.94 62.6001C32.23 62.6001 27.38 57.7801 27.38 48.1501C27.38 38.5201 31.62 34.3401 40.11 34.3401ZM30.2 46.5601H48.99C48.88 39.9901 45.92 36.7101 40.11 36.7101C33.83 36.7101 30.53 39.9901 30.21 46.5601H30.2Z" fill="#211261"/>
<path d="M67.05 34.3401C74.78 34.3401 78.65 38.6201 78.65 47.1801C78.65 47.7901 78.63 48.4301 78.6 49.0901H57.15C57.15 56.4801 61.06 60.1801 68.88 60.1801C72.09 60.1801 74.94 59.7301 77.44 58.8301V61.2501C74.95 62.1501 72.09 62.6001 68.88 62.6001C59.17 62.6001 54.32 57.7801 54.32 48.1501C54.32 38.5201 58.56 34.3401 67.05 34.3401ZM57.15 46.5601H75.94C75.83 39.9901 72.87 36.7101 67.06 36.7101C60.78 36.7101 57.48 39.9901 57.16 46.5601H57.15Z" fill="#211261"/>
<path d="M85.17 24.1101H82.34V62.6001H85.17V24.1101Z" fill="#211261"/>
<path d="M105.65 54.6001C105.65 48.9901 109.38 46.1801 116.85 46.1801C119.49 46.1801 122.3 46.3601 125.3 46.7201V43.2501C125.3 38.9301 122.58 36.7601 117.15 36.7601C114.06 36.7601 111 37.2101 107.95 38.1101V35.6901C111 34.7901 114.07 34.3401 117.15 34.3401C124.47 34.3401 128.13 37.2601 128.13 43.1101V62.5901H126.41L125.76 59.7901C122.23 61.6601 118.8 62.5901 115.48 62.5901C108.93 62.5901 105.66 59.9301 105.66 54.6001H105.65ZM116.85 48.6001C111.27 48.6001 108.48 50.5701 108.48 54.5201C108.48 58.4701 110.81 60.1701 115.48 60.1701C118.92 60.1701 122.2 59.2501 125.3 57.4201V49.1301C122.3 48.7701 119.49 48.5901 116.85 48.5901V48.6001Z" fill="#211261"/>
<path d="M177.53 34.3401H172.55V62.6001H177.53V34.3401Z" fill="white"/>
<path d="M177.53 24.1101H172.55V28.8201H177.53V24.1101Z" fill="white"/>
<path d="M201.81 24.1101V35.6801C199.64 34.7801 197.33 34.3301 194.89 34.3301C185.96 34.3301 181.49 38.8501 181.49 47.8901C181.49 57.6901 185.7 62.5801 194.11 62.5801C199.13 62.5801 203.36 62.0101 206.79 60.8801V24.0901H201.81V24.1101ZM201.81 57.4001C199.8 58.1001 197.5 58.4501 194.92 58.4501C189.23 58.4501 186.39 54.8701 186.39 47.7101C186.39 41.6601 189.23 38.6401 194.92 38.6401C197.5 38.6401 199.8 39.1201 201.81 40.0901V57.3901V57.4001Z" fill="white"/>
<path d="M155.19 34.3401C152.75 34.3401 150.46 34.7901 148.33 35.6901V24.1201H143.35V61.4501C146.74 62.2201 150.46 62.6101 154.52 62.6101C163.9 62.6101 168.6 57.7101 168.6 47.9201C168.6 38.8801 164.13 34.3601 155.2 34.3601L155.19 34.3401ZM154.27 58.4501C151.94 58.4501 149.96 58.1901 148.32 57.6701V40.1001C150.29 39.1301 152.57 38.6501 155.16 38.6501C160.85 38.6501 163.69 41.6701 163.69 47.7201C163.69 54.8801 160.55 58.4601 154.27 58.4601V58.4501Z" fill="white"/>
<path d="M100.9 34.3401H96.96L85.17 46.2801V48.2501L98.21 62.6001H102.5L88.02 47.1401L100.9 34.3401Z" fill="#211261"/>
</svg>
