<svg width="156" height="56" viewBox="0 0 156 56" fill="none" xmlns="http://www.w3.org/2000/svg">
<path d="M114.159 52.4404L116.866 55.1746L116.87 55.1815C116.966 55.2783 117.079 55.3544 117.198 55.4062C117.325 55.4581 117.459 55.4857 117.589 55.4857H139.493C139.623 55.4857 139.757 55.4615 139.883 55.4062C140.006 55.3544 140.119 55.2783 140.212 55.1815H140.215V55.1746L155.702 39.5334C155.702 39.5334 155.713 39.5127 155.723 39.5023C155.805 39.4159 155.877 39.3156 155.925 39.1981C155.925 39.1981 155.925 39.1912 155.925 39.1877C155.973 39.0668 156 38.9389 156 38.8041V16.6748C156 16.5434 155.973 16.412 155.925 16.2911C155.925 16.2911 155.925 16.2842 155.925 16.2807C155.921 16.2703 155.911 16.2634 155.908 16.2565C155.856 16.1424 155.791 16.0387 155.702 15.9489H155.699C155.699 15.9489 155.699 15.9454 155.699 15.9419L152.992 13.2078L142.922 3.03837L140.215 0.304183H140.212C140.02 0.107155 139.763 0 139.493 0H117.582C117.311 0 117.051 0.107155 116.863 0.300726H116.86V0.307639L101.372 15.9489C101.283 16.0387 101.218 16.1459 101.167 16.26C101.164 16.2703 101.157 16.2738 101.153 16.2842C101.153 16.2842 101.153 16.2911 101.153 16.2945C101.106 16.4155 101.078 16.5469 101.078 16.6782V38.8075C101.078 38.9389 101.106 39.0702 101.153 39.1912C101.153 39.1912 101.153 39.1981 101.153 39.2016C101.201 39.3191 101.273 39.4193 101.355 39.5058C101.362 39.5161 101.366 39.5265 101.376 39.5369L104.087 42.2745L114.156 52.4439L114.159 52.4404ZM153.977 37.2624L143.381 32.8276V22.6443L153.977 18.2095V37.2624ZM139.859 52.634L135.468 41.9288L142.597 34.7287L153.194 39.1635L139.856 52.634H139.859ZM103.895 39.1635L114.491 34.7287L121.62 41.9288L117.229 52.634L103.891 39.1635H103.895ZM103.115 18.2095L113.711 22.6443V32.8276L103.115 37.2624V18.2095ZM117.233 2.83789L121.624 13.5431L114.495 20.7432L103.898 16.3084L117.236 2.83789H117.233ZM133.846 40.6603H123.246L115.751 33.0903V22.3816L123.246 14.8116H133.846L141.341 22.3816V33.0903L133.846 40.6603ZM133.586 12.7549H123.503L119.112 2.04978H137.973L133.582 12.7549H133.586ZM123.503 42.717H133.586L137.977 53.4221H119.115L123.506 42.717H123.503ZM142.597 20.7432L135.468 13.5431L139.859 2.83789L153.197 16.3084L142.601 20.7432H142.597Z" fill="url(#paint0_linear_1783_20179)"/>
<path d="M82.6787 16.8335V17.0927V29.7855C82.6787 32.575 82.2612 34.6455 81.4192 36.0039C80.4814 37.5318 78.9447 38.2957 76.8159 38.2957H76.0184C73.8862 38.2957 72.3528 37.5318 71.4151 36.0039C70.9051 35.1813 70.5492 34.0959 70.3506 32.7443C70.2582 32.1291 70.2 31.455 70.1727 30.7291C70.159 30.4249 70.1556 30.1069 70.1556 29.782V12.333C70.2206 11.1439 70.6587 10.1104 71.4698 9.22547L67.5612 7.99146V29.9963C67.5578 30.2487 67.5476 30.4975 67.5339 30.7395C67.4962 31.4585 67.4243 32.1256 67.3182 32.7443C66.9075 35.1813 65.9732 36.8059 64.522 37.6147C63.5466 37.0686 62.9066 36.0178 62.6054 34.4623C62.5232 34.0544 62.4685 33.6085 62.4377 33.1315C62.4137 32.7893 62.4 32.4263 62.4 32.0496V16.8508L59.6175 17.7288C60.1822 18.3406 60.4902 19.0596 60.5484 19.8822V32.136C60.5484 32.3261 60.5518 32.5127 60.5587 32.6925C60.5826 33.3354 60.6511 33.923 60.764 34.4623C61.1302 36.2148 61.9619 37.4211 63.2591 38.0814C62.6841 38.2231 62.0954 38.2922 61.493 38.2922H58.3203V38.8211H61.493C64.5494 38.8211 66.7741 38.0503 68.1773 36.5086C68.4306 36.2252 68.6599 35.9071 68.8721 35.5546C69.0809 35.9383 69.3273 36.277 69.6079 36.5743C70.9256 38.0433 73.0339 38.7969 75.9363 38.8245H76.9014C79.4341 38.8003 81.361 38.2265 82.6822 37.1031C82.8772 36.9372 83.0586 36.7644 83.2263 36.5743C84.4619 35.2055 85.1053 33.1073 85.1567 30.2798C85.1567 30.1553 85.1601 30.0343 85.1601 29.9064V21.1439C85.1909 19.9375 85.6153 18.8936 86.4299 18.0122L82.6822 16.8266L82.6787 16.8335Z" fill="#2D3A4A"/>
<path d="M51.626 30.3866C51.5713 32.8754 51.1503 34.7489 50.3734 36.0105C49.4356 37.5384 47.8988 38.3023 45.77 38.3023H44.9725C42.8437 38.3023 41.307 37.5384 40.3692 36.0105C39.5307 34.6521 39.1097 32.5781 39.1097 29.7921V17.0993H39.0926V16.1626L35.3449 17.3482C36.1937 18.2677 36.6181 19.3669 36.6181 20.6389V30.6078C36.5428 32.9894 36.1252 34.7903 35.3688 36.014C34.431 37.5418 32.8943 38.3057 30.7655 38.3057H29.968C27.8392 38.3057 26.3024 37.5418 25.3647 36.014C24.5261 34.6555 24.1051 32.5816 24.1051 29.7955V20.7323C24.2147 19.7056 24.6288 18.8035 25.3441 18.0257L21.5964 16.8401V34.2546C21.5348 36.7019 21.1241 38.5477 20.3643 39.7921C20.2034 40.0513 20.0254 40.2898 19.8304 40.5076C19.779 40.5214 19.7277 40.5283 19.6729 40.5352V40.5664H19.7756C18.8241 41.593 17.4859 42.1046 15.7609 42.1046H10.7982C7.40644 42.1046 4.78133 40.9155 2.91603 38.5373C1.34849 36.529 0.561301 34.1198 0.561301 31.3199C0.561301 27.8391 1.97482 24.9943 4.80529 22.7855C5.84232 22.0077 7.06076 21.6171 8.46401 21.6171C9.66875 21.6171 10.7058 21.9352 11.5751 22.5712C11.825 22.7717 12.044 22.9894 12.2254 23.2314L12.4787 23.5701L12.4376 23.5252L12.2699 23.4837C11.9756 23.4837 11.7291 23.5943 11.5341 23.8225C11.2945 24.0368 11.1781 24.2995 11.1781 24.6106C11.1781 24.9217 11.2979 25.1706 11.5341 25.3952C11.7326 25.6061 11.9893 25.7132 12.311 25.7132C12.8004 25.7132 13.1187 25.4505 13.2556 24.9286C13.283 24.7454 13.3001 24.5829 13.3001 24.4412C13.3001 24.1578 13.2419 23.8812 13.1324 23.6116C12.951 23.3005 12.732 23.0102 12.4787 22.7406C11.8181 22.0492 11.0412 21.586 10.1479 21.3614C9.57292 21.2058 9.01162 21.1263 8.46743 21.1263C7.12236 21.1263 5.93131 21.4512 4.89427 22.1045C4.61362 22.305 4.34666 22.502 4.09681 22.6991C1.3656 24.9355 0 27.8218 0 31.3614C0 34.5449 0.944629 37.1789 2.83731 39.2563C4.884 41.4927 7.53992 42.6092 10.8016 42.6092H15.8465C18.5264 42.5919 20.5525 41.911 21.9215 40.5629C22.8628 39.6365 23.4925 38.3921 23.8142 36.8367C23.8998 36.9196 23.9854 36.9991 24.0743 37.0786C25.4023 38.2228 27.3395 38.8069 29.8859 38.8346H30.8545C33.3735 38.8104 35.2969 38.2401 36.6215 37.1236C36.8234 36.9576 37.0082 36.7779 37.1794 36.5843C37.4326 36.3009 37.6619 35.9829 37.8741 35.6303C38.0829 35.9829 38.3157 36.3009 38.5689 36.5843C38.7332 36.7675 38.9078 36.9404 39.0994 37.0994C40.424 38.2297 42.3577 38.8104 44.8973 38.8311H45.8658C48.3883 38.8069 50.3152 38.2366 51.6397 37.1201C51.8382 36.9542 52.023 36.7744 52.1942 36.5843C53.3784 35.2708 54.0184 33.2867 54.1176 30.6355C54.1279 30.4004 54.1313 30.1619 54.1313 29.9165V20.9569C54.1998 19.8335 54.6208 18.8553 55.3874 18.0188L51.6431 16.8332V30.3831L51.626 30.3866Z" fill="#2D3A4A"/>
<path d="M53.0457 12.7584C53.0457 12.2226 52.8883 11.7663 52.5734 11.3826C52.2585 11.0024 51.8341 10.8088 51.307 10.8088C50.7799 10.8088 50.3556 10.999 50.0407 11.3826C49.7258 11.7629 49.5684 12.2226 49.5684 12.7584L51.307 15.3163L53.0457 12.7584Z" fill="#2D3A4A"/>
<path d="M48.5672 12.7584C48.5672 12.2226 48.4097 11.7663 48.0949 11.3826C47.78 11.0024 47.3556 10.8088 46.8285 10.8088C46.3014 10.8088 45.877 10.999 45.5622 11.3826C45.2473 11.7629 45.0898 12.2226 45.0898 12.7584L46.8285 15.3163L48.5672 12.7584Z" fill="#2D3A4A"/>
<path d="M18.198 15.651C18.198 15.1152 18.0406 14.6589 17.7257 14.2752C17.4108 13.895 16.9864 13.7014 16.4594 13.7014C15.9323 13.7014 15.5079 13.8915 15.193 14.2752C14.8781 14.6554 14.7207 15.1152 14.7207 15.651L16.4594 18.2089L18.198 15.651Z" fill="#2D3A4A"/>
<path d="M39.3804 44.1617C39.5755 44.2378 39.7911 44.2758 40.0238 44.2758C40.2566 44.2758 40.4756 44.2378 40.6707 44.1617C40.9103 44.0649 41.119 43.9128 41.2936 43.702C41.6085 43.3218 41.7659 42.862 41.7659 42.3262L40.0238 39.7649L38.2852 42.3262C38.2852 42.862 38.4426 43.3183 38.7575 43.702C38.932 43.9128 39.1374 44.0649 39.3804 44.1617Z" fill="#2D3A4A"/>
<path d="M79.1266 43.7052C79.154 43.7363 79.1814 43.7708 79.2122 43.7985C79.5168 44.12 79.9104 44.279 80.393 44.279C80.9235 44.279 81.3444 44.0888 81.6593 43.7052C81.9776 43.3249 82.135 42.8652 82.135 42.3294L80.393 39.7681L78.6543 42.3294C78.6543 42.765 78.7604 43.1521 78.9692 43.4839C79.0171 43.56 79.0718 43.6326 79.13 43.7017L79.1266 43.7052Z" fill="#2D3A4A"/>
<path d="M34.9019 44.1617C35.0969 44.2378 35.3126 44.2758 35.5453 44.2758C35.778 44.2758 35.9971 44.2378 36.1922 44.1617C36.4317 44.0649 36.6405 43.9128 36.8151 43.702C37.13 43.3218 37.2874 42.862 37.2874 42.3262L35.5453 39.7649L33.8066 42.3262C33.8066 42.862 33.9641 43.3183 34.279 43.702C34.4535 43.9128 34.6589 44.0649 34.9019 44.1617Z" fill="#2D3A4A"/>
<defs>
<linearGradient id="paint0_linear_1783_20179" x1="101.078" y1="27.7394" x2="156.014" y2="27.7394" gradientUnits="userSpaceOnUse">
<stop offset="0.03" stop-color="#DBBA95"/>
<stop offset="1" stop-color="#B9926D"/>
</linearGradient>
</defs>
</svg>
