<svg width="156" height="53" viewBox="0 0 156 53" fill="none" xmlns="http://www.w3.org/2000/svg">
<path fill-rule="evenodd" clip-rule="evenodd" d="M86.4092 15.1229C86.4092 16.6199 86.0723 17.8527 85.3987 18.8213C84.7033 19.768 83.8341 20.5605 82.791 21.1989C81.7479 21.8373 80.6288 22.3657 79.4336 22.7839C78.2166 23.2022 77.0975 23.6315 76.0762 24.0718C75.0331 24.5121 74.1638 25.0184 73.4685 25.5908C72.7731 26.1632 72.4254 26.9117 72.4254 27.8363V34.0774C72.4254 34.8039 72.6427 35.4203 73.0773 35.9266L73.2077 36.0257C73.6423 36.51 74.1856 36.7962 74.8375 36.8843V36.9173H66.9492V36.8843C67.5577 36.7962 68.0792 36.532 68.5138 36.0917L68.742 35.8606C69.1549 35.3763 69.3613 34.8039 69.3613 34.1434V11.5896C69.2961 10.9511 69.0462 10.4118 68.6116 9.97149C68.1553 9.50919 67.6011 9.223 66.9492 9.11292V9.04688H78.5535C79.4662 9.04688 80.3897 9.17897 81.3241 9.44314C82.2586 9.6853 83.1061 10.0595 83.8666 10.5659C84.6272 11.0722 85.2466 11.7106 85.7246 12.4812C86.181 13.2517 86.4092 14.1322 86.4092 15.1229ZM72.4254 9.57523V26.2182C72.7731 25.5578 73.3055 24.9964 74.0226 24.5341C74.718 24.0938 75.4894 23.6755 76.3369 23.2793C77.1627 22.883 78.0102 22.4647 78.8794 22.0245C79.7487 21.6062 80.5418 21.0998 81.2589 20.5054C81.9761 19.889 82.5628 19.1515 83.0192 18.293C83.4755 17.4124 83.7037 16.3117 83.7037 14.9908C83.7037 14.1542 83.5516 13.3947 83.2473 12.7123C82.9648 12.0519 82.5519 11.4795 82.0087 10.9952C81.4871 10.5329 80.8678 10.1806 80.1507 9.93847C79.4118 9.69631 78.6187 9.57523 77.7712 9.57523H72.4254Z" fill="white"/>
<path d="M95.109 36.9833H94.2941H88.0356H87.2207V36.9173C87.8726 36.8513 88.4159 36.5651 88.8505 36.0587L88.9809 35.9267C89.4155 35.4203 89.6328 34.8039 89.6328 34.0774V33.5491V32.8886V12.9435C89.6328 11.3584 89.1004 9.98252 88.0356 8.81575L92.6969 7.36279V32.8886V34.1435C92.6969 34.8259 92.9142 35.4203 93.3488 35.9267L93.5118 36.0918C93.9247 36.5761 94.4571 36.8513 95.109 36.9173V36.9833Z" fill="white"/>
<path fill-rule="evenodd" clip-rule="evenodd" d="M111.309 36.9832V30.0817L111.342 26.7135C110.559 28.7608 109.755 30.4669 108.93 31.8318C108.082 33.1967 107.267 34.2975 106.485 35.134C105.702 35.9486 104.964 36.5209 104.268 36.8512C103.551 37.1814 102.932 37.3465 102.41 37.3465C100.976 37.3465 99.7591 37.0383 98.7595 36.4219C97.7816 35.8275 97.0319 35.09 96.5103 34.2094C95.9671 33.3288 95.6737 32.3822 95.6303 31.3695C95.6085 30.3349 95.8041 29.3992 96.217 28.5627C96.7603 27.506 97.4013 26.6914 98.1402 26.1191C98.8573 25.5247 99.6505 25.0734 100.52 24.7652C101.389 24.457 102.291 24.2588 103.225 24.1708C104.16 24.0827 105.094 23.9837 106.028 23.8736C106.985 23.7855 107.919 23.6534 108.832 23.4773C109.723 23.3012 110.581 22.982 111.407 22.5197C111.407 21.3089 111.211 20.2412 110.82 19.3166C110.451 18.3699 109.864 17.7645 109.06 17.5004C108.234 17.2362 107.365 17.1481 106.452 17.2362C105.539 17.3243 104.638 17.5114 103.747 17.7976C102.834 18.0617 101.976 18.392 101.172 18.7882C100.346 19.1625 99.6179 19.5147 98.9877 19.8449L95.5977 17.3683C96.4234 17.0381 97.51 16.7079 98.8573 16.3776C100.205 16.0254 101.78 15.8273 103.584 15.7832C104.257 15.7172 104.92 15.7392 105.572 15.8493C106.202 15.9594 106.832 16.1245 107.463 16.3446C108.658 16.7849 109.766 17.3573 110.787 18.0617C111.331 18.436 111.809 18.8323 112.222 19.2505C112.635 19.6908 112.993 20.1751 113.297 20.7035C113.602 21.2539 113.862 21.8042 114.08 22.3546C114.297 22.927 114.406 23.4993 114.406 24.0717V32.8555C114.406 33.2518 114.427 33.56 114.471 33.7801C114.493 34.0003 114.569 34.1874 114.699 34.3415C114.829 34.4956 114.992 34.6497 115.188 34.8038C115.384 34.9579 115.644 35.134 115.97 35.3322L111.309 36.9832ZM111.374 23.2132C110.288 23.6755 109.255 23.9616 108.278 24.0717C107.3 24.1598 106.365 24.2368 105.474 24.3029C104.562 24.3689 103.66 24.512 102.769 24.7321C101.9 24.9303 101.019 25.3706 100.129 26.053C99.6722 26.4053 99.3028 26.8786 99.0203 27.473C98.7595 28.0674 98.5856 28.6948 98.4987 29.3552C98.4118 30.0377 98.4118 30.7201 98.4987 31.4026C98.5856 32.085 98.7595 32.7014 99.0203 33.2518C99.3028 33.8021 99.6613 34.2424 100.096 34.5727C100.531 34.8809 101.041 35.0239 101.628 35.0019C103.04 34.9139 104.257 34.5506 105.279 33.9122C106.3 33.2518 107.169 32.5033 107.886 31.6667C108.582 30.8522 109.136 30.0597 109.549 29.2892C109.94 28.4966 110.222 27.9353 110.396 27.605C111.048 26.3062 111.374 25.1504 111.374 24.1378V23.2132Z" fill="white"/>
<path d="M126.112 34.837C125.786 35.2993 125.395 35.7066 124.938 36.0588C124.569 36.367 124.102 36.6532 123.537 36.9174C122.95 37.1815 122.298 37.3136 121.581 37.3136C120.407 37.3136 119.527 36.9064 118.941 36.0918C118.354 35.2993 118.028 34.2536 117.963 32.9548H117.93V17.0382H115.746V16.2787C116.528 16.2787 117.213 16.0806 117.8 15.6843C118.408 15.2881 118.908 14.8038 119.299 14.2314C119.712 13.681 120.027 13.0976 120.244 12.4812C120.462 11.8648 120.57 11.3475 120.57 10.9292H120.994V16.2787H125.297V17.0382H120.994V32.7236C120.994 33.8904 121.233 34.6939 121.711 35.1342C122.168 35.5745 122.743 35.7836 123.439 35.7616C123.852 35.7836 124.221 35.7396 124.547 35.6295C124.873 35.5194 125.145 35.3874 125.362 35.2333C125.623 35.0792 125.851 34.892 126.047 34.6719L126.112 34.837Z" fill="white"/>
<path d="M134.878 36.9832H134.063H127.87H127.055V36.9172C127.707 36.8511 128.25 36.5649 128.684 36.0586L128.782 35.9265C129.217 35.4202 129.434 34.8038 129.434 34.0773V33.549V32.8885V21.6941C129.434 20.1091 128.913 18.7332 127.87 17.5664L132.466 16.3116V32.8885V34.1433C132.466 34.8258 132.683 35.4202 133.118 35.9265L133.281 36.0916C133.693 36.576 134.226 36.8511 134.878 36.9172V36.9832ZM130.673 13.5708L128.782 10.83C128.782 10.2576 128.956 9.76225 129.304 9.34398C129.63 8.94771 130.086 8.73857 130.673 8.71655C131.238 8.73857 131.683 8.94771 132.009 9.34398C132.357 9.76225 132.531 10.2576 132.531 10.83L130.673 13.5708Z" fill="white"/>
<path d="M155.998 36.9833H155.151H148.925H148.11V36.9172C148.762 36.8512 149.284 36.576 149.675 36.0917L149.838 35.9266C150.272 35.4202 150.49 34.8038 150.49 34.0773V26.5814C150.468 25.3266 150.424 24.0827 150.359 22.8499C150.316 21.6391 150.153 20.5604 149.87 19.6138C149.61 18.6672 149.197 17.9077 148.632 17.3353C148.088 16.7629 147.317 16.4767 146.317 16.4767C145.253 16.4767 144.362 16.7849 143.644 17.4013C142.906 18.0397 142.297 18.8103 141.819 19.7129C141.341 20.6154 141.004 21.5511 140.809 22.5197C140.613 23.4663 140.515 24.2699 140.515 24.9303V32.8886V34.1434C140.515 34.8258 140.733 35.4202 141.167 35.9266L141.33 36.0917C141.743 36.576 142.275 36.8512 142.927 36.9172V36.9833H142.112H135.854H135.887H135.039V36.9172C135.713 36.8512 136.256 36.576 136.669 36.0917L136.767 35.9266C137.201 35.4202 137.419 34.8038 137.419 34.0773V21.6942C137.419 20.9237 137.288 20.1862 137.027 19.4817C136.788 18.7552 136.397 18.1168 135.854 17.5664L140.515 16.3116V21.0667C140.711 20.5604 140.972 20.01 141.298 19.4157C141.624 18.8213 142.026 18.2709 142.504 17.7646C142.96 17.2582 143.525 16.8399 144.199 16.5097C144.851 16.1795 145.633 16.0144 146.546 16.0144C148.088 16.0144 149.305 16.2786 150.196 16.8069C151.109 17.3133 151.815 18.0067 152.315 18.8873C152.793 19.7679 153.119 20.7696 153.293 21.8923C153.445 23.015 153.532 24.1928 153.554 25.4256V32.8886V34.1434C153.597 34.8258 153.825 35.4202 154.238 35.9266L154.369 36.0917C154.781 36.576 155.325 36.8512 155.998 36.9172V36.9833Z" fill="white"/>
<path fill-rule="evenodd" clip-rule="evenodd" d="M0.260771 37.7769C0.260771 37.7549 0.260771 37.7439 0.260771 37.7439C0.173847 37.6559 0.108653 37.5568 0.0651914 37.4467C0.0217298 37.3367 0 37.2156 0 37.0835V15.9495C0 15.8175 0.0217298 15.6854 0.0651914 15.5533C0.108653 15.4432 0.173847 15.3441 0.260771 15.2561L15.0269 0.297194C15.2224 0.0990634 15.4506 0 15.7114 0H36.5729C36.8337 0 37.0945 0.0990634 37.2575 0.297194L49.4484 12.6143L52.0235 15.2231V15.2561C52.1105 15.3221 52.1757 15.4102 52.2191 15.5202C52.2191 15.5423 52.2191 15.5533 52.2191 15.5533C52.2191 15.5533 52.23 15.5533 52.2517 15.5533C52.2952 15.6854 52.3169 15.8175 52.3169 15.9495V37.0835C52.3169 37.2156 52.2952 37.3367 52.2517 37.4467C52.23 37.4467 52.2191 37.4467 52.2191 37.4467C52.1757 37.5568 52.1213 37.6559 52.0561 37.7439C52.0344 37.7439 52.0235 37.7549 52.0235 37.7769L37.2575 52.7028V52.7358C37.1705 52.8239 37.0727 52.8899 36.9641 52.934C36.8337 52.978 36.7033 53 36.5729 53H15.7114C15.581 53 15.4615 52.978 15.3528 52.934C15.2224 52.8899 15.1138 52.8239 15.0269 52.7358L0.260771 37.7769ZM50.3611 17.4025L40.2889 21.6293V31.3707L50.3611 35.5975V17.4025ZM49.6114 37.4137L39.5392 33.1869L32.7266 40.0555L36.9315 50.2922L49.6114 37.4137ZM15.3528 50.2922L19.5251 40.0555L12.7451 33.1869L2.64029 37.4137L15.3528 50.2922ZM1.92317 35.5975L11.9954 31.3707V21.6623L1.92317 17.4025V35.5975ZM2.64029 15.5863L12.7451 19.8131L19.5251 12.9446L15.3528 2.70779L2.64029 15.5863ZM38.3005 31.6349V21.3981L31.162 14.1664H21.0897L13.9512 21.3981V31.6349L21.0897 38.8667H31.162L38.3005 31.6349ZM35.1061 1.98131H17.1456L21.3179 12.2181H30.9338L35.1061 1.98131ZM17.1456 51.0517H35.1061L30.9012 40.815H21.3179L17.1456 51.0517ZM49.6114 15.5863L36.8989 2.74082L32.7266 12.9446L39.5066 19.8461L49.6114 15.5863Z" fill="white"/>
</svg>
