<svg width="158" height="56" viewBox="0 0 158 56" fill="none" xmlns="http://www.w3.org/2000/svg">
<path d="M114.942 52.753L117.666 55.5035L117.669 55.5104C117.765 55.6078 117.879 55.6843 118 55.7364C118.127 55.7886 118.261 55.8164 118.392 55.8164H140.427C140.558 55.8164 140.692 55.7921 140.82 55.7364C140.944 55.6843 141.057 55.6078 141.15 55.5104H141.154V55.5035L156.733 39.769C156.733 39.769 156.743 39.7482 156.754 39.7377C156.836 39.6508 156.909 39.5499 156.957 39.4317C156.957 39.4317 156.957 39.4248 156.957 39.4213C157.005 39.2996 157.032 39.1709 157.032 39.0353V16.7741C157.032 16.642 157.005 16.5099 156.957 16.3882C156.957 16.3882 156.957 16.3812 156.957 16.3777C156.953 16.3673 156.943 16.3603 156.94 16.3534C156.888 16.2386 156.822 16.1343 156.733 16.0439H156.73C156.73 16.0439 156.73 16.0404 156.73 16.037L154.006 13.2865L143.877 3.05648L141.154 0.305996H141.15C140.957 0.107794 140.699 0 140.427 0H118.385C118.113 0 117.852 0.107794 117.662 0.302519H117.659V0.309473L102.079 16.0439C101.99 16.1343 101.924 16.2421 101.873 16.3569C101.869 16.3673 101.862 16.3708 101.859 16.3812C101.859 16.3812 101.859 16.3882 101.859 16.3916C101.811 16.5133 101.783 16.6455 101.783 16.7776V39.0388C101.783 39.1709 101.811 39.3031 101.859 39.4248C101.859 39.4248 101.859 39.4317 101.859 39.4352C101.907 39.5534 101.979 39.6543 102.062 39.7412C102.069 39.7516 102.072 39.7621 102.083 39.7725L104.81 42.5265L114.939 52.7565L114.942 52.753ZM154.998 37.4845L144.338 33.0232V22.7793L154.998 18.318V37.4845ZM140.795 52.9477L136.378 42.1787L143.55 34.9357L154.209 39.3969L140.792 52.9477H140.795ZM104.617 39.3969L115.276 34.9357L122.448 42.1787L118.031 52.9477L104.613 39.3969H104.617ZM103.832 18.318L114.491 22.7793V33.0232L103.832 37.4845V18.318ZM118.034 2.8548L122.451 13.6238L115.28 20.8668L104.62 16.4055L118.037 2.8548H118.034ZM134.746 40.9026H124.083L116.543 33.2875V22.515L124.083 14.8999H134.746L142.286 22.515V33.2875L134.746 40.9026ZM134.485 12.831H124.342L119.924 2.06199H138.898L134.481 12.831H134.485ZM124.342 42.9715H134.485L138.902 53.7405H119.928L124.345 42.9715H124.342ZM143.55 20.8668L136.378 13.6238L140.795 2.8548L154.213 16.4055L143.553 20.8668H143.55Z" fill="white"/>
<path d="M83.2751 16.9318V17.1926V29.961C83.2751 32.7671 82.855 34.85 82.0081 36.2165C81.0647 37.7535 79.5188 38.5219 77.3773 38.5219H76.5751C74.4301 38.5219 72.8876 37.7535 71.9443 36.2165C71.4313 35.389 71.0732 34.2971 70.8735 32.9375C70.7806 32.3186 70.722 31.6405 70.6945 30.9103C70.6807 30.6043 70.6773 30.2844 70.6773 29.9575V12.4045C70.7427 11.2083 71.1834 10.1686 71.9994 9.27848L68.0675 8.03711V30.1731C68.064 30.427 68.0537 30.6773 68.04 30.9207C68.0021 31.644 67.9298 32.3151 67.823 32.9375C67.4099 35.389 66.47 37.0233 65.0101 37.8369C64.0289 37.2875 63.3851 36.2304 63.0821 34.6657C62.9994 34.2554 62.9444 33.8068 62.9134 33.327C62.8893 32.9827 62.8755 32.6176 62.8755 32.2386V16.9492L60.0764 17.8324C60.6445 18.4479 60.9543 19.1712 61.0129 19.9988V32.3255C61.0129 32.5168 61.0163 32.7045 61.0232 32.8854C61.0473 33.5321 61.1161 34.1232 61.2298 34.6657C61.5982 36.4286 62.4348 37.6422 63.7397 38.3063C63.1613 38.4489 62.5691 38.5185 61.9631 38.5185H58.7715V39.0505H61.9631C65.0377 39.0505 67.2756 38.2751 68.6872 36.7242C68.942 36.4391 69.1727 36.1192 69.3861 35.7645C69.5962 36.1505 69.8441 36.4912 70.1264 36.7903C71.4519 38.2681 73.5728 39.0261 76.4924 39.0539H77.4634C80.0111 39.0296 81.9495 38.4524 83.2785 37.3223C83.4748 37.1554 83.6572 36.9815 83.826 36.7903C85.0689 35.4133 85.7161 33.3026 85.7678 30.4583C85.7678 30.3331 85.7712 30.2114 85.7712 30.0827V21.2679C85.8022 20.0544 86.2291 19.0043 87.0486 18.1176L83.2785 16.9249L83.2751 16.9318Z" fill="white"/>
<path d="M52.0353 30.5666C51.9802 33.0702 51.5567 34.9548 50.7751 36.224C49.8318 37.761 48.2859 38.5294 46.1443 38.5294H45.3421C43.2006 38.5294 41.6547 37.761 40.7113 36.224C39.8678 34.8575 39.4443 32.7711 39.4443 29.9685V17.2001H39.4271V16.2578L35.6571 17.4505C36.5109 18.3754 36.9379 19.4812 36.9379 20.7608V30.7891C36.8621 33.1849 36.4421 34.9966 35.6812 36.2275C34.7378 37.7644 33.1919 38.5329 31.0504 38.5329H30.2482C28.1066 38.5329 26.5608 37.7644 25.6174 36.2275C24.7739 34.861 24.3504 32.7746 24.3504 29.972V20.8547C24.4605 19.822 24.8771 18.9144 25.5967 18.132L21.8267 16.9393V34.4576C21.7647 36.9195 21.3515 38.7763 20.5872 40.0281C20.4254 40.2889 20.2464 40.5288 20.0501 40.7479C19.9985 40.7618 19.9468 40.7688 19.8917 40.7757V40.807H19.995C19.0379 41.8398 17.6917 42.3544 15.9564 42.3544H10.9641C7.55214 42.3544 4.91139 41.1582 3.03497 38.7659C1.45809 36.7456 0.666209 34.322 0.666209 31.5054C0.666209 28.0039 2.08815 25.1421 4.93549 22.9202C5.97871 22.1378 7.2044 21.7449 8.61602 21.7449C9.82794 21.7449 10.8712 22.0648 11.7457 22.7046C11.997 22.9063 12.2174 23.1253 12.3998 23.3687L12.6546 23.7095L12.6133 23.6643L12.4446 23.6226C12.1485 23.6226 11.9006 23.7338 11.7044 23.9633C11.4634 24.1789 11.3463 24.4432 11.3463 24.7561C11.3463 25.0691 11.4668 25.3195 11.7044 25.5455C11.9041 25.7576 12.1623 25.8654 12.4859 25.8654C12.9783 25.8654 13.2985 25.6011 13.4362 25.0761C13.4637 24.8918 13.4809 24.7283 13.4809 24.5858C13.4809 24.3006 13.4224 24.0225 13.3122 23.7512C13.1297 23.4383 12.9094 23.1462 12.6546 22.875C11.9901 22.1795 11.2086 21.7136 10.31 21.4876C9.73154 21.3311 9.16689 21.2511 8.61946 21.2511C7.26637 21.2511 6.06822 21.578 5.025 22.2352C4.74268 22.4368 4.47413 22.635 4.22279 22.8332C1.47531 25.083 0.101562 27.9865 0.101562 31.5472C0.101562 34.7497 1.05182 37.3993 2.95578 39.4891C5.01468 41.7389 7.68642 42.862 10.9676 42.862H16.0425C18.7383 42.8447 20.7766 42.1597 22.1538 40.8035C23.1006 39.8716 23.7341 38.6198 24.0577 37.0551C24.1438 37.1385 24.2299 37.2185 24.3194 37.2985C25.6553 38.4495 27.604 39.0371 30.1655 39.0649H31.1399C33.6739 39.0406 35.6089 38.4668 36.9413 37.3437C37.1444 37.1768 37.3304 36.996 37.5025 36.8013C37.7573 36.5161 37.988 36.1962 38.2014 35.8415C38.4114 36.1962 38.6456 36.5161 38.9003 36.8013C39.0656 36.9855 39.2412 37.1594 39.434 37.3194C40.7664 38.4564 42.7117 39.0406 45.2664 39.0614H46.2407C48.7782 39.0371 50.7166 38.4634 52.049 37.3402C52.2487 37.1733 52.4346 36.9925 52.6068 36.8013C53.7981 35.4799 54.4419 33.484 54.5417 30.8169C54.5521 30.5805 54.5555 30.3406 54.5555 30.0937V21.0807C54.6244 19.9506 55.0479 18.9666 55.8191 18.1251L52.0525 16.9324V30.5631L52.0353 30.5666Z" fill="white"/>
<path d="M53.4629 12.8283C53.4629 12.2894 53.3045 11.8304 52.9878 11.4444C52.671 11.0619 52.2441 10.8672 51.7139 10.8672C51.1837 10.8672 50.7567 11.0584 50.44 11.4444C50.1232 11.8269 49.9648 12.2894 49.9648 12.8283L51.7139 15.4015L53.4629 12.8283Z" fill="white"/>
<path d="M48.957 12.8283C48.957 12.2894 48.7987 11.8304 48.4819 11.4444C48.1652 11.0619 47.7382 10.8672 47.208 10.8672C46.6778 10.8672 46.2509 11.0584 45.9341 11.4444C45.6174 11.8269 45.459 12.2894 45.459 12.8283L47.208 15.4015L48.957 12.8283Z" fill="white"/>
<path d="M18.4082 15.7444C18.4082 15.2054 18.2498 14.7464 17.9331 14.3604C17.6163 13.9779 17.1894 13.7832 16.6592 13.7832C16.129 13.7832 15.702 13.9745 15.3853 14.3604C15.0685 14.7429 14.9102 15.2054 14.9102 15.7444L16.6592 18.3175L18.4082 15.7444Z" fill="white"/>
<path d="M39.717 44.4211C39.9132 44.4976 40.1301 44.5358 40.3643 44.5358C40.5984 44.5358 40.8187 44.4976 41.015 44.4211C41.256 44.3237 41.466 44.1707 41.6416 43.9586C41.9584 43.5761 42.1167 43.1136 42.1167 42.5747L40.3643 39.998L38.6152 42.5747C38.6152 43.1136 38.7736 43.5726 39.0904 43.9586C39.266 44.1707 39.4725 44.3237 39.717 44.4211Z" fill="white"/>
<path d="M79.6997 43.9645C79.7273 43.9958 79.7548 44.0305 79.7858 44.0584C80.0922 44.3817 80.4882 44.5417 80.9736 44.5417C81.5073 44.5417 81.9308 44.3504 82.2475 43.9645C82.5677 43.582 82.7261 43.1195 82.7261 42.5805L80.9736 40.0039L79.2246 42.5805C79.2246 43.0187 79.3313 43.4081 79.5414 43.7419C79.5896 43.8184 79.6447 43.8914 79.7032 43.961L79.6997 43.9645Z" fill="white"/>
<path d="M35.2111 44.4211C35.4074 44.4976 35.6243 44.5358 35.8584 44.5358C36.0925 44.5358 36.3129 44.4976 36.5091 44.4211C36.7501 44.3237 36.9601 44.1707 37.1357 43.9586C37.4525 43.5761 37.6109 43.1136 37.6109 42.5747L35.8584 39.998L34.1094 42.5747C34.1094 43.1136 34.2678 43.5726 34.5845 43.9586C34.7601 44.1707 34.9667 44.3237 35.2111 44.4211Z" fill="white"/>
</svg>
